<svg xmlns="http://www.w3.org/2000/svg" version="1.1" xmlns:xlink="http://www.w3.org/1999/xlink" width="514.1256489302439" height="200" viewBox="-1.4800000190734863 10.479999542236328 155.239990234375 54.28000259399414"><path d="M28.60 33.92L28.60 33.92Q28.96 33.92 28.96 34.40L28.96 34.40Q28.96 35.64 21.92 40.22Q14.88 44.80 10.24 47L10.24 47L9.28 48.32Q12.08 49.40 12.08 51.82Q12.08 54.24 9.68 57.40Q7.28 60.56 4.48 62.66Q1.68 64.76 0.10 64.76Q-1.48 64.76-1.48 63.28L-1.48 63.28Q-1.48 60.92 6.88 48.76L6.88 48.76Q6.76 48.72 6.48 48.72L6.48 48.72Q4.04 49.08 3.96 49.08L3.96 49.08Q3.28 49.08 3.28 48.66Q3.28 48.24 4.36 48.12L4.36 48.12Q5.80 47.80 8.24 46.76L8.24 46.76Q10.72 43.20 14.76 37.80L14.76 37.80Q9.76 41.12 7.68 41.12L7.68 41.12Q6.84 41.12 6.42 40.66Q6 40.20 6 38.86Q6 37.52 7.60 35.06Q9.20 32.60 11.50 29.94Q13.80 27.28 16.10 24.54Q18.40 21.80 20 19.10Q21.60 16.40 21.60 14.56L21.60 14.56Q21.60 12.20 18.24 12.20L18.24 12.20Q15.48 12.20 11.70 14.12Q7.92 16.04 5.04 19.10Q2.16 22.16 2.16 24.92L2.16 24.92Q2.16 26.80 4.36 26.80L4.36 26.80Q5.96 26.80 7.72 25.90Q9.48 25 10.80 23.76L10.80 23.76Q13.56 21.20 14.28 19.80L14.28 19.80Q14.64 19.16 15.06 19.16Q15.48 19.16 15.48 19.52L15.48 19.52Q15.48 20.32 13.56 22.30Q11.64 24.28 8.72 26.08Q5.80 27.88 3.88 27.88Q1.96 27.88 1.28 26.96Q0.60 26.04 0.60 24.76L0.60 24.76Q0.60 22.52 3.50 19.34Q6.40 16.16 10.74 13.76Q15.08 11.36 18.68 11.36L18.68 11.36Q23.20 11.36 23.20 15.32L23.20 15.32Q23.20 17.28 21.66 19.96Q20.12 22.64 17.90 25.24Q15.68 27.84 13.44 30.40L13.44 30.40Q8.16 36.44 8.16 39.16L8.16 39.16Q8.16 40.04 9.28 40.04L9.28 40.04Q11.04 40.04 15.84 36.36L15.84 36.36Q22.12 28.12 27.10 22.66Q32.08 17.20 33.68 17.20L33.68 17.20Q34.80 17.20 34.80 18.04L34.80 18.04Q34.80 19.88 30.16 24.74Q25.52 29.60 19.64 34.24L19.64 34.24Q15.16 40.08 11.52 45.20L11.52 45.20Q16.20 42.84 20.94 39.72Q25.68 36.60 28.04 34.24L28.04 34.24Q28.36 33.92 28.60 33.92ZM4.26 61.66Q6.60 59.72 8.58 56.88Q10.56 54.04 10.56 52.04Q10.56 50.04 8.64 49.24L8.64 49.24Q0.28 61.20 0.28 62.92L0.28 62.92Q0.28 63.60 0.80 63.60L0.80 63.60Q1.92 63.60 4.26 61.66ZM32.96 18.40L32.96 18.40Q31.88 18.40 21.96 31.24L21.96 31.24Q26.48 27.16 29.88 23.42Q33.28 19.68 33.28 18.68L33.28 18.68Q33.28 18.40 32.96 18.40ZM42.12 34.20L43.12 33.36Q43.40 33.16 43.64 33.16Q43.88 33.16 43.88 33.44L43.88 33.44L43.88 33.52Q39.72 36.96 36.96 38.68Q34.20 40.40 31.96 40.40L31.96 40.40Q30.16 40.40 30.16 38.64L30.16 38.64Q30.16 36.04 32.80 33.30Q35.44 30.56 37.24 30.56L37.24 30.56Q38.24 30.56 38.24 31.68L38.24 31.68Q38.04 33.88 31.92 37.60L31.92 37.60L31.92 38Q31.92 39.32 33.30 39.32Q34.68 39.32 36.28 38.40L36.28 38.40Q39.40 36.56 42.12 34.20L42.12 34.20ZM36.20 31.80L36.20 31.80Q35.32 31.80 33.94 33.28Q32.56 34.76 32.08 36.64L32.08 36.64Q34 35.48 35.32 34.18Q36.64 32.88 36.64 32.34Q36.64 31.80 36.20 31.80ZM43.36 33.04L43.36 33.04L43.28 32.60Q43.28 32.40 44.12 32.40L44.12 32.40Q44.60 32.40 44.60 33Q44.60 33.60 43.22 35.66Q41.84 37.72 41.84 37.80Q41.84 37.88 42 37.88Q42.16 37.88 45.70 35.08Q49.24 32.28 49.96 32.28Q50.68 32.28 50.68 32.78Q50.68 33.28 50.28 33.90Q49.88 34.52 48.60 36.14Q47.32 37.76 47.24 37.88Q47.16 38 47.16 38.16Q47.16 38.32 47.42 38.32Q47.68 38.32 51.36 35.60Q55.04 32.88 55.56 32.88Q56.08 32.88 56.08 33.32L56.08 33.32Q56.08 34.12 54.32 36.12Q52.56 38.12 52.56 38.66Q52.56 39.20 52.98 39.20Q53.40 39.20 55.08 38.08L55.08 38.08Q58.08 36.08 60.60 34.04L60.60 34.04L61.48 33.32Q61.80 33.12 62.02 33.12Q62.24 33.12 62.24 33.36L62.24 33.36L62.24 33.48Q53.80 40.52 51.80 40.52L51.80 40.52Q50.64 40.52 50.64 39.56L50.64 39.56Q50.64 38.76 51.80 37.20Q52.96 35.64 52.96 35.50Q52.96 35.36 52.86 35.36Q52.76 35.36 49.58 37.64Q46.40 39.92 45.80 39.92L45.80 39.92Q45.52 39.92 45.32 39.70Q45.12 39.48 45.12 39.24L45.12 39.24Q45.12 38.52 46.84 36.32L46.84 36.32Q48.56 34.16 48.56 33.96L48.56 33.96Q48.56 33.76 48.32 33.76L48.32 33.76Q48.04 33.76 42.64 38.16L42.64 38.16L40.64 39.76Q40.12 40.20 39.86 40.20Q39.60 40.20 39.36 40.06Q39.12 39.92 39.12 39.64Q39.12 39.36 39.82 38.28Q40.52 37.20 41.64 35.64L41.64 35.64Q43.36 33.32 43.36 33.04ZM65.74 27.92Q66.12 27.92 66.34 28.16Q66.56 28.40 66.56 28.84Q66.56 29.28 65.96 29.96Q65.36 30.64 64.92 30.64Q64.48 30.64 64.28 30.38Q64.08 30.12 64.08 29.78Q64.08 29.44 64.72 28.68Q65.36 27.92 65.74 27.92ZM68.16 34.04L69.04 33.32Q69.36 33.12 69.54 33.12Q69.72 33.12 69.72 33.36L69.72 33.36L69.72 33.48Q69.88 33.48 67.58 35.24Q65.28 37 62.66 38.76Q60.04 40.52 59.36 40.52L59.36 40.52Q58.20 40.52 58.20 39.56L58.20 39.56Q58.20 38.40 60.20 35.18Q62.20 31.96 63.12 31.96L63.12 31.96Q63.80 31.96 63.80 32.48Q63.80 33 61.96 35.32Q60.12 37.64 60.12 38.64L60.12 38.64Q60.12 39.20 60.54 39.20Q60.96 39.20 62.64 38.08L62.64 38.08Q65.64 36.08 68.16 34.04L68.16 34.04ZM75.76 34.24L76.88 33.36Q77.20 33.16 77.42 33.16Q77.64 33.16 77.64 33.44L77.64 33.44L77.64 33.52Q74.56 36.12 71.14 38.40Q67.72 40.68 66.80 40.68Q65.88 40.68 65.26 40.34Q64.64 40 64.64 39.56Q64.64 39.12 64.88 38.82Q65.12 38.52 65.32 38.52Q65.52 38.52 65.98 39.14Q66.44 39.76 66.88 39.76L66.88 39.76Q67.80 39.76 68.32 37.80Q68.84 35.84 68.84 35.10Q68.84 34.36 68.74 34.36Q68.64 34.36 68.56 34.44L68.56 34.44L67.40 35.36L67.24 34.76Q69.76 32.76 70.16 32.08L70.16 32.08Q70.40 31.44 70.84 31.44L70.84 31.44Q71.12 31.44 71.12 31.64Q71.12 31.84 70.84 32.50Q70.56 33.16 70.10 35.48Q69.64 37.80 69.64 38.16Q69.64 38.52 69.84 38.52L69.84 38.52Q72.64 36.80 75.76 34.24L75.76 34.24ZM81.22 27.92Q81.60 27.92 81.82 28.16Q82.04 28.40 82.04 28.84Q82.04 29.28 81.44 29.96Q80.84 30.64 80.40 30.64Q79.96 30.64 79.76 30.38Q79.56 30.12 79.56 29.78Q79.56 29.44 80.20 28.68Q80.84 27.92 81.22 27.92ZM83.64 34.04L84.52 33.32Q84.84 33.12 85.02 33.12Q85.20 33.12 85.20 33.36L85.20 33.36L85.20 33.48Q85.36 33.48 83.06 35.24Q80.76 37 78.14 38.76Q75.52 40.52 74.84 40.52L74.84 40.52Q73.68 40.52 73.68 39.56L73.68 39.56Q73.68 38.40 75.68 35.18Q77.68 31.96 78.60 31.96L78.60 31.96Q79.28 31.96 79.28 32.48Q79.28 33 77.44 35.32Q75.60 37.64 75.60 38.64L75.60 38.64Q75.60 39.20 76.02 39.20Q76.44 39.20 78.12 38.08L78.12 38.08Q81.12 36.08 83.64 34.04L83.64 34.04ZM87.96 42.04L87.96 42.04Q87.96 39.92 93.48 32.94Q99 25.96 105.64 20L105.64 20Q106.52 17.80 106.52 16.52L106.52 16.52Q106.52 11.12 97.36 11.12L97.36 11.12Q94.56 11.12 92.40 12.16L92.40 12.16Q91.08 12.80 91.08 13.76Q91.08 14.72 92.50 15.74Q93.92 16.76 95.64 17.56Q97.36 18.36 98.78 19.66Q100.20 20.96 100.20 22.40L100.20 22.40Q100.20 23.20 100.04 23.60Q99.88 24 99.76 24L99.76 24Q99.56 24 99.48 23.44L99.48 23.44Q99.48 21.20 96.12 19.40L96.12 19.40Q94.68 18.64 93.24 17.92L93.24 17.92Q89.88 16.12 89.88 14.04L89.88 14.04Q89.88 13.08 90.76 12.34Q91.64 11.60 93 11.20L93 11.20Q95.60 10.48 97.44 10.48Q99.28 10.48 100.92 10.76Q102.56 11.04 104.34 11.68Q106.12 12.32 107.26 13.66Q108.40 15 108.40 16.84L108.40 16.84Q108.40 17.08 108.32 17.72L108.32 17.72Q116.68 10.88 121.52 10.88L121.52 10.88Q123.52 10.88 123.52 12.56L123.52 12.56Q123.52 14.48 121.26 17.60Q119 20.72 115.78 23.18Q112.56 25.64 110.20 25.64L110.20 25.64Q107.44 25.64 107.24 22.80L107.24 22.80Q107.24 22.16 107.64 22.16L107.64 22.16Q107.92 22.16 108.18 22.76Q108.44 23.36 109.18 24.06Q109.92 24.76 110.72 24.76L110.72 24.76Q112.56 24.76 115.12 22.28Q117.68 19.80 119.42 16.98Q121.16 14.16 121.16 12.92L121.16 12.92Q121.16 12.04 120.24 12.04L120.24 12.04Q116.20 12.04 107.88 19.32L107.88 19.32Q106.56 23.12 102.76 28.78Q98.96 34.44 94.88 38.68Q90.80 42.92 88.92 42.92L88.92 42.92Q87.96 42.92 87.96 42.04ZM89.68 41.80L89.68 41.80Q91.64 41.80 96.72 35.08Q101.80 28.36 104.72 22.20L104.72 22.20Q98.80 27.88 94.16 33.78Q89.52 39.68 89.52 41.60L89.52 41.60Q89.52 41.80 89.68 41.80ZM117.32 34.20L118.32 33.36Q118.60 33.16 118.84 33.16Q119.08 33.16 119.08 33.44L119.08 33.44L119.08 33.52Q114.92 36.96 112.16 38.68Q109.40 40.40 107.16 40.40L107.16 40.40Q105.36 40.40 105.36 38.64L105.36 38.64Q105.36 36.04 108.00 33.30Q110.64 30.56 112.44 30.56L112.44 30.56Q113.44 30.56 113.44 31.68L113.44 31.68Q113.24 33.88 107.12 37.60L107.12 37.60L107.12 38Q107.12 39.32 108.50 39.32Q109.88 39.32 111.48 38.40L111.48 38.40Q114.60 36.56 117.32 34.20L117.32 34.20ZM111.40 31.80L111.40 31.80Q110.52 31.80 109.14 33.28Q107.76 34.76 107.28 36.64L107.28 36.64Q109.20 35.48 110.52 34.18Q111.84 32.88 111.84 32.34Q111.84 31.80 111.40 31.80ZM139.92 23.04L139.92 23.04L134.20 22.76Q130.68 22.76 127.20 23.04L127.20 23.04L127.40 23.84Q127.40 24.28 124.80 27.18Q122.20 30.08 119.60 33.50Q117 36.92 117 38.56L117 38.56Q117 39.20 117.46 39.20Q117.92 39.20 119.56 38.08L119.56 38.08Q122.60 36.08 125.12 34.04L125.12 34.04L126 33.32Q126.28 33.12 126.48 33.12Q126.68 33.12 126.68 33.36L126.68 33.36L126.68 33.48Q126.84 33.48 124.54 35.24Q122.24 37 119.62 38.76Q117 40.52 116.32 40.52L116.32 40.52Q115.16 40.52 115.16 39.48L115.16 39.48Q115.16 37.96 116.86 35.28Q118.56 32.60 120.58 30.22Q122.60 27.84 124.42 25.72Q126.24 23.60 126.40 23.12L126.40 23.12Q122 23.52 119.64 24.08L119.64 24.08L118.84 24.24Q118.52 24.28 118.52 24.84L118.52 24.84Q118.52 25.08 117.96 25.08Q117.40 25.08 116.58 24.82Q115.76 24.56 115.76 24.08Q115.76 23.60 116.56 23.44L116.56 23.44Q122.48 22.40 124.96 22.18Q127.44 21.96 128.26 21.90Q129.08 21.84 130.82 21.80Q132.56 21.76 133.16 21.76L133.16 21.76Q134.96 21.68 137.38 21.68Q139.80 21.68 140.32 21.88Q140.84 22.08 140.84 22.64L140.84 22.64Q140.84 23.04 139.92 23.04ZM135.20 34.20L136.20 33.36Q136.48 33.16 136.72 33.16Q136.96 33.16 136.96 33.44L136.96 33.44L136.96 33.52Q132.80 36.96 130.04 38.68Q127.28 40.40 125.04 40.40L125.04 40.40Q123.24 40.40 123.24 38.64L123.24 38.64Q123.24 36.04 125.88 33.30Q128.52 30.56 130.32 30.56L130.32 30.56Q131.32 30.56 131.32 31.68L131.32 31.68Q131.12 33.88 125 37.60L125 37.60L125 38Q125 39.32 126.38 39.32Q127.76 39.32 129.36 38.40L129.36 38.40Q132.48 36.56 135.20 34.20L135.20 34.20ZM129.28 31.80L129.28 31.80Q128.40 31.80 127.02 33.28Q125.64 34.76 125.16 36.64L125.16 36.64Q127.08 35.48 128.40 34.18Q129.72 32.88 129.72 32.34Q129.72 31.80 129.28 31.80ZM144.24 34.04L145.08 33.36Q145.36 33.16 145.60 33.16Q145.84 33.16 145.84 33.44L145.84 33.44L145.84 33.52Q142.84 35.92 139.92 38.02Q137 40.12 135.64 40.12L135.64 40.12Q134.64 40.12 134.64 39.04Q134.64 37.96 135.60 36.88Q136.56 35.80 137.50 35Q138.44 34.20 138.44 33.94Q138.44 33.68 138.14 33.34Q137.84 33 137.64 32.88L137.64 32.88Q136.96 33.56 134.68 35.36L134.68 35.36L134.52 34.76Q137.04 32.76 137.44 32.08L137.44 32.08L137.44 31.72Q137.44 30.72 137.64 30.36Q137.84 30 138.60 29.36Q139.36 28.72 139.64 28.72Q139.92 28.72 140.14 28.92Q140.36 29.12 140.36 29.32Q140.36 29.52 140.22 29.78Q140.08 30.04 139.94 30.22Q139.80 30.40 139.56 30.66Q139.32 30.92 139.26 31.02Q139.20 31.12 139.14 31.36Q139.08 31.60 138.88 31.76Q138.68 31.92 138.68 32.16Q138.68 32.40 139 33.22Q139.32 34.04 139.32 34.42Q139.32 34.80 137.84 36.22Q136.36 37.64 136.36 38.52L136.36 38.52Q136.36 39 136.80 39L136.80 39Q137.36 39 138.88 38L138.88 38L139.36 37.68Q141.96 35.88 144.24 34.04L144.24 34.04ZM151.88 34.24L153 33.36Q153.32 33.16 153.54 33.16Q153.76 33.16 153.76 33.44L153.76 33.44L153.76 33.52Q150.68 36.12 147.26 38.40Q143.84 40.68 142.92 40.68Q142 40.68 141.38 40.34Q140.76 40 140.76 39.56Q140.76 39.12 141 38.82Q141.24 38.52 141.44 38.52Q141.64 38.52 142.10 39.14Q142.56 39.76 143 39.76L143 39.76Q143.92 39.76 144.44 37.80Q144.96 35.84 144.96 35.10Q144.96 34.36 144.86 34.36Q144.76 34.36 144.68 34.44L144.68 34.44L143.52 35.36L143.36 34.76Q145.88 32.76 146.28 32.08L146.28 32.08Q146.52 31.44 146.96 31.44L146.96 31.44Q147.24 31.44 147.24 31.64Q147.24 31.84 146.96 32.50Q146.68 33.16 146.22 35.48Q145.76 37.80 145.76 38.16Q145.76 38.52 145.96 38.52L145.96 38.52Q148.76 36.80 151.88 34.24L151.88 34.24Z" fill="#C65A2D"></path></svg>